<svg id='Calendar_24' width='24' height='24' viewBox='0 0 24 24' xmlns='http://www.w3.org/2000/svg' xmlns:xlink='http://www.w3.org/1999/xlink'><rect width='24' height='24' stroke='none' fill='#000000' opacity='0'/>


<g transform="matrix(0.42 0 0 0.42 12 12)" >
<g style="" >
<g transform="matrix(1 0 0 1 0 4)" >
<path style="stroke: none; stroke-width: 1; stroke-dasharray: none; stroke-linecap: butt; stroke-dashoffset: 0; stroke-linejoin: miter; stroke-miterlimit: 4; fill: rgb(207,216,220); fill-rule: nonzero; opacity: 1;" transform=" translate(-24, -28)" d="M 5 38 L 5 14 L 43 14 L 43 38 C 43 40.2 41.2 42 39 42 L 9 42 C 6.8 42 5 40.2 5 38 z" stroke-linecap="round" />
</g>
<g transform="matrix(1 0 0 1 0 -13)" >
<path style="stroke: none; stroke-width: 1; stroke-dasharray: none; stroke-linecap: butt; stroke-dashoffset: 0; stroke-linejoin: miter; stroke-miterlimit: 4; fill: rgb(244,67,54); fill-rule: nonzero; opacity: 1;" transform=" translate(-24, -11)" d="M 43 10 L 43 16 L 5 16 L 5 10 C 5 7.8 6.8 6 9 6 L 39 6 C 41.2 6 43 7.8 43 10 z" stroke-linecap="round" />
</g>
<g transform="matrix(1 0 0 1 0 -14)" >
<path style="stroke: none; stroke-width: 1; stroke-dasharray: none; stroke-linecap: butt; stroke-dashoffset: 0; stroke-linejoin: miter; stroke-miterlimit: 4; fill: rgb(183,28,28); fill-rule: nonzero; opacity: 1;" transform=" translate(-24, -10)" d="M 33 7 C 31.34314575050762 7 30 8.34314575050762 30 10 C 30 11.65685424949238 31.34314575050762 13 33 13 C 34.65685424949238 13 36 11.65685424949238 36 10 C 36 8.34314575050762 34.65685424949238 7 33 7 z M 15 7 C 13.34314575050762 7 12 8.34314575050762 12 10 C 12 11.65685424949238 13.34314575050762 13 15 13 C 16.65685424949238 13 18 11.65685424949238 18 10 C 18 8.34314575050762 16.65685424949238 7 15 7 z" stroke-linecap="round" />
</g>
<g transform="matrix(1 0 0 1 0 -16.5)" >
<path style="stroke: none; stroke-width: 1; stroke-dasharray: none; stroke-linecap: butt; stroke-dashoffset: 0; stroke-linejoin: miter; stroke-miterlimit: 4; fill: rgb(176,190,197); fill-rule: nonzero; opacity: 1;" transform=" translate(-24, -7.5)" d="M 33 3 C 31.9 3 31 3.9 31 5 L 31 10 C 31 11.1 31.9 12 33 12 C 34.1 12 35 11.1 35 10 L 35 5 C 35 3.9 34.1 3 33 3 z M 15 3 C 13.9 3 13 3.9 13 5 L 13 10 C 13 11.1 13.9 12 15 12 C 16.1 12 17 11.1 17 10 L 17 5 C 17 3.9 16.1 3 15 3 z" stroke-linecap="round" />
</g>
<g transform="matrix(1 0 0 1 0 4)" >
<path style="stroke: none; stroke-width: 1; stroke-dasharray: none; stroke-linecap: butt; stroke-dashoffset: 0; stroke-linejoin: miter; stroke-miterlimit: 4; fill: rgb(144,164,174); fill-rule: nonzero; opacity: 1;" transform=" translate(-24, -28)" d="M 13 20 L 17 20 L 17 24 L 13 24 z M 19 20 L 23 20 L 23 24 L 19 24 z M 25 20 L 29 20 L 29 24 L 25 24 z M 31 20 L 35 20 L 35 24 L 31 24 z M 13 26 L 17 26 L 17 30 L 13 30 z M 19 26 L 23 26 L 23 30 L 19 30 z M 25 26 L 29 26 L 29 30 L 25 30 z M 31 26 L 35 26 L 35 30 L 31 30 z M 13 32 L 17 32 L 17 36 L 13 36 z M 19 32 L 23 32 L 23 36 L 19 36 z M 25 32 L 29 32 L 29 36 L 25 36 z M 31 32 L 35 32 L 35 36 L 31 36 z" stroke-linecap="round" />
</g>
</g>
</g>
</svg>
